# xmcd
#
# Track frame offsets: 
#        150
#        1882
#        16450
#        32314
#        50739
#        65614
#        85247
#        100231
#        120708
#        140833
#        162382
#        178262
#        195288
#
# Disc length: 2785 seconds
#
# Revision: 1
# Processed by: cddbd v1.5.2PL0 Copyright (c) Steve Scherf et al.
# Submitted via: ExactAudioCopyFreeDBPlugin 1.0
#
DISCID=ac0adf0d
DTITLE=SoulStack - Big Red
DYEAR=2012
DGENRE=Blues
TTITLE0=Intro
TTITLE1=Stone Cold Man
TTITLE2=In My Time Of Dying
TTITLE3=Desperate Times
TTITLE4=Since You Came Around
TTITLE5=Skinny Girl
TTITLE6=In Your Mind
TTITLE7=Just a Natural Thing
TTITLE8=River Of Love
TTITLE9=Holy Roller
TTITLE10=Your Only Man
TTITLE11=Let Me Be Your Fool
TTITLE12=Miss Me
EXTD=
EXTT0=
EXTT1=
EXTT2=
EXTT3=
EXTT4=
EXTT5=
EXTT6=
EXTT7=
EXTT8=
EXTT9=
EXTT10=
EXTT11=
EXTT12=
PLAYORDER=
